<svg xmlns="http://www.w3.org/2000/svg" viewBox="0 0 100 100">
  <!-- Background -->
  <rect width="100" height="100" rx="14" fill="#1a0a2e"/>
  <!-- Boss goblin head -->
  <circle cx="62" cy="38" r="18" fill="#DC2626"/>
  <polygon points="51,23 46,13 55,19" fill="#7F1D1D"/>
  <polygon points="73,23 78,13 69,19" fill="#7F1D1D"/>
  <circle cx="56" cy="35" r="4.5" fill="#FEF08A"/>
  <circle cx="68" cy="35" r="4.5" fill="#FEF08A"/>
  <circle cx="57" cy="36" r="2.5" fill="#111"/>
  <circle cx="69" cy="36" r="2.5" fill="#111"/>
  <path d="M53 46 L56 51 L59 46 L62 51 L65 46 L68 51 L71 46" stroke="#7F1D1D" stroke-width="2" fill="#B91C1C" stroke-linejoin="round"/>
  <!-- Player music mage -->
  <circle cx="30" cy="52" r="13" fill="#FBBF24"/>
  <path d="M17 48 Q18 38 30 36 Q42 38 43 48" fill="#92400E"/>
  <circle cx="25" cy="50" r="3" fill="white"/>
  <circle cx="35" cy="50" r="3" fill="white"/>
  <circle cx="26" cy="51" r="1.5" fill="#1E40AF"/>
  <circle cx="36" cy="51" r="1.5" fill="#1E40AF"/>
  <path d="M24 57 Q30 62 36 57" stroke="#92400E" stroke-width="1.5" fill="none" stroke-linecap="round"/>
  <path d="M17 65 Q14 82 15 95 L45 95 Q46 82 43 65 Z" fill="#4C1D95"/>
  <!-- Wand and magic projectile -->
  <line x1="43" y1="48" x2="56" y2="40" stroke="#7C3AED" stroke-width="2.5" stroke-linecap="round"/>
  <circle cx="57" cy="39" r="5" fill="#FF2D78" opacity=".9"/>
  <!-- Crossed swords / battle indicator -->
  <text x="50" y="96" font-family="'Orbitron',monospace" font-size="7" font-weight="700" fill="#6B7280" text-anchor="middle" letter-spacing="0.5">BOSS</text>
</svg>
